<svg xmlns="http://www.w3.org/2000/svg" xmlns:xlink="http://www.w3.org/1999/xlink" version="1.1" x="0px" y="0px" viewBox="0 0 96 96" enable-background="new 0 0 96 96" xml:space="preserve"><path d="M70.204,70.9l-17.44-52.328c-0.548-1.632-2.076-2.736-3.796-2.736c-1.724,0-3.252,1.1-3.796,2.736L27.728,70.9  c-0.7,2.092,0.432,4.359,2.528,5.067c2.104,0.704,4.364-0.432,5.06-2.532l3.144-9.424h21.008l3.14,9.424  c0.564,1.676,2.121,2.74,3.797,2.74c0.416,0,0.844-0.068,1.264-0.203C69.771,75.256,70.908,72.992,70.204,70.9z M52,56H41.128  l7.84-23.516L56.805,56H52z"></path><path d="M94,20c1.1,0,2-0.9,2-2V2c0-1.1-0.9-2-2-2H78c-1.1,0-2,0.9-2,2v2H20V2c0-1.1-0.896-2-2-2H2C0.896,0,0,0.9,0,2v16  c0,1.1,0.896,2,2,2h2v56H2c-1.104,0-2,0.9-2,2v16c0,1.1,0.896,2,2,2h16c1.104,0,2-0.9,2-2v-2h56v2c0,1.1,0.9,2,2,2h16  c1.1,0,2-0.9,2-2V78c0-1.1-0.9-2-2-2h-2V20H94z M88,76H78c-1.1,0-2,0.9-2,2v10H20V78c0-1.1-0.896-2-2-2H8V20h10c1.104,0,2-0.9,2-2V8  h56v10c0,1.1,0.9,2,2,2h10V76z"></path></svg>