<svg xmlns="http://www.w3.org/2000/svg" xmlns:xlink="http://www.w3.org/1999/xlink" version="1.1" x="0px" y="0px" viewBox="0 0 100 100" style="enable-background:new 0 0 100 100;" xml:space="preserve"><g><path d="M90.6,40h-4.4c-0.8-3-2-5.9-3.5-8.6l3.1-3.1c1.7-1.7,1.7-4.5,0-6.2l-8-8c-1.7-1.7-4.5-1.7-6.2,0l-3.1,3.1   c-2.7-1.5-5.5-2.7-8.6-3.5V9.4C60,7,58,5,55.6,5H44.4C41.9,5,40,7,40,9.4v4.4c-3,0.8-5.9,2-8.6,3.5l-3.1-3.1   c-1.7-1.7-4.5-1.7-6.2,0l-8,8c-1.7,1.7-1.7,4.5,0,6.2l3.1,3.1c-1.5,2.7-2.7,5.5-3.5,8.6H9.4C6.9,40,5,42,5,44.4v11.3   C5,58,6.9,60,9.4,60h4.4c0.8,3,2,5.9,3.5,8.6l-3.1,3.1c-1.7,1.7-1.7,4.5,0,6.2l8,8c1.7,1.7,4.5,1.7,6.2,0l3.1-3.1   c2.7,1.5,5.5,2.7,8.6,3.5v4.4c0,2.4,2,4.4,4.4,4.4h11.3c2.4,0,4.4-2,4.4-4.4v-4.4c3-0.8,5.9-2,8.6-3.5l3.1,3.1   c1.7,1.7,4.5,1.7,6.2,0l8-8c1.7-1.7,1.7-4.5,0-6.2l-3.1-3.1c1.5-2.7,2.7-5.5,3.5-8.6h4.4c2.4,0,4.4-2,4.4-4.4V44.4   C95,42,93,40,90.6,40z M50,70c-11,0-20-9-20-20c0-11,9-20,20-20s20,9,20,20C70,61,61,70,50,70z"></path></g></svg>